<svg width="512" height="512" viewBox="0 0 512 512" fill="none" xmlns="http://www.w3.org/2000/svg">
<g clip-path="url(#clip0_1_2)">
<path d="M295.617 314.359C342.718 340.08 389.496 365.623 436.26 391.193C444.251 395.563 452.179 400.048 461.045 404.986C458.839 406.715 457.506 408.103 455.894 408.972C425.543 425.332 395.098 441.519 364.85 458.067C360.463 460.467 357.411 459.034 353.836 457.179C322.053 440.687 290.221 424.288 258.503 407.67C254.687 405.671 251.777 405.672 247.949 407.697C216.147 424.518 184.207 441.079 152.364 457.823C148.989 459.598 146.263 459.937 142.715 457.886C112.862 440.632 82.8886 423.587 52.9637 406.457C51.7052 405.736 50.5693 404.802 48.5257 403.372C52.5722 401.258 55.8983 399.517 59.2278 397.782C98.5196 377.307 137.84 356.888 177.061 336.278C181.004 334.206 184.191 334.075 188.146 336.085C199.132 341.669 210.308 346.879 221.395 352.264C223.272 353.176 225.083 354.226 228.208 355.899C221.723 359.69 216.078 362.469 211.03 366.08C205.352 370.141 199.926 370.891 194.101 366.978C186.651 361.973 180.117 363.563 172.586 367.9C152.673 379.366 132.234 389.917 112.009 400.842C110.6 401.603 109.233 402.44 106.984 403.741C115.79 408.558 124.285 412.201 131.619 417.461C141.702 424.692 150.153 423.863 160.952 417.958C189.141 402.544 218.172 388.674 246.795 374.044C249.828 372.494 252.177 372.603 255.162 374.075C288.174 390.352 321.284 406.431 354.265 422.77C358.056 424.648 360.869 424.486 364.349 422.282C374.338 415.954 384.528 409.944 394.622 403.781C395.694 403.126 396.648 402.278 398.352 400.997C390.047 396.423 382.389 392.166 374.697 387.973C337.55 367.726 300.36 347.558 263.289 327.174C258.957 324.792 255.232 324.208 251.467 327.501C243.653 334.335 236.221 334.329 228.241 327.429C224.435 324.138 219.566 322.076 214.624 319.126C216.111 317.91 216.864 317.085 217.789 316.568C229.712 309.903 241.717 303.384 253.564 296.588C257.04 294.594 259.876 294.736 263.298 296.672C273.879 302.659 284.614 308.371 295.617 314.359Z" fill="white"/>
<path d="M31.1924 278.939C31.2615 277.627 31.5958 276.738 31.4006 275.987C29.257 267.736 33.5001 264.196 40.564 260.821C73.1536 245.246 105.432 229.02 137.884 213.156C140.985 211.641 142.252 209.954 142.146 206.357C141.381 180.376 140.806 154.389 140.278 128.402C140.129 121.087 140.053 113.743 140.584 106.46C140.718 104.627 142.975 102.303 144.842 101.342C163.934 91.5145 183.146 81.9223 202.325 72.263C214.487 66.1374 226.648 60.0097 239.64 53.4646C239.773 55.891 239.948 57.588 239.945 59.2847C239.874 101.613 239.731 143.941 239.786 186.269C239.791 190.184 238.629 192.1 234.975 193.724C221.929 199.521 209.085 205.773 195.168 212.322C194.754 205.354 194.289 198.991 194.019 192.62C193.651 183.954 193.718 183.959 201.645 180.599C205.321 179.042 208.879 177.109 212.677 175.964C216.754 174.735 217.459 172.336 217.174 168.488C216.01 152.748 215.026 136.993 214.16 121.234C213.807 114.804 213.955 108.348 213.806 101.906C213.768 100.298 213.46 98.6967 213.193 96.3586C210.734 97.5175 208.811 98.3084 206.996 99.2975C195.594 105.512 184.239 111.813 172.812 117.98C170.367 119.299 169.588 120.747 169.583 123.761C169.524 157.255 169.22 190.748 168.777 224.239C168.755 225.901 167.237 228.272 165.747 229.079C132.819 246.925 99.8162 264.634 66.7571 282.236C63.7069 283.86 62.4903 285.568 62.7303 289.176C63.4577 300.111 63.7195 311.076 64.1952 322.836C74.1875 317.907 83.6958 313.259 93.1672 308.536C128.763 290.789 164.323 272.971 199.969 255.324C203.872 253.392 206.463 251.711 205.465 246.554C204.15 239.749 206.854 235.249 213.915 232.61C222.393 229.442 230.376 224.952 239.964 220.37C239.964 228.611 239.974 235.702 239.961 242.793C239.95 248.956 239.729 255.125 239.962 261.279C240.081 264.447 238.867 266.043 236.121 267.383C186.012 291.828 135.942 316.351 85.8662 340.863C70.6167 348.328 55.3786 355.816 40.1283 363.28C38.5415 364.056 36.9073 364.736 34.6682 365.742C33.4966 336.486 32.3541 307.956 31.1924 278.939Z" fill="white"/>
<path d="M277.804 219.897C278.228 198.588 278.563 177.277 279.098 155.97C279.876 125.009 280.794 94.0519 281.671 63.0935C281.741 60.6079 281.96 58.1265 282.142 55.1097C291.887 59.7183 301.248 64.16 310.621 68.5752C333.492 79.3485 356.301 90.259 379.305 100.741C383.578 102.688 383.092 105.494 382.897 108.75C381.525 131.694 380.094 154.634 378.765 177.58C378.067 189.643 377.437 201.713 377.093 213.789C377.059 214.964 379.051 216.611 380.462 217.351C397.406 226.224 414.409 234.983 431.413 243.741C447.387 251.968 463.338 260.242 479.403 268.288C482.383 269.781 483.44 271.418 483.232 274.776C482.452 287.391 482.03 300.029 481.417 312.656C480.554 330.402 479.642 348.146 478.741 365.891C478.693 366.837 478.544 367.779 478.345 369.636C472.368 366.727 466.891 364.125 461.469 361.413C424.58 342.959 387.727 324.432 350.778 306.101C347.707 304.577 346.706 302.923 346.962 299.634C347.991 286.403 348.804 273.154 349.733 259.376C358.298 263.121 366.342 266.493 374.203 270.248C375.288 270.766 376.257 273.365 375.947 274.689C372.205 290.692 372.118 290.721 386.992 298.06C407.131 307.995 427.304 317.862 447.475 327.733C449.08 328.518 450.783 329.101 452.78 329.918C453.563 316.135 454.42 302.751 454.946 289.354C455.004 287.887 453.519 285.664 452.144 284.938C418.898 267.384 385.593 249.94 352.223 232.624C348.466 230.675 346.486 228.703 346.918 223.986C348.087 211.233 348.671 198.426 349.453 185.638C350.71 165.078 351.996 144.519 353.07 123.949C353.15 122.409 352.047 119.953 350.794 119.329C336.506 112.209 322.084 105.359 307.687 98.4582C307.266 98.2565 306.732 98.2908 305.729 98.1328C305.15 109.682 304.499 121.104 304.017 132.534C302.36 171.775 300.811 211.02 299.066 250.257C298.896 254.083 299.549 256.506 303.567 257.724C306.39 258.58 308.837 260.699 311.666 261.51C317.3 263.126 318.396 266.793 317.871 272.041C317.442 276.33 317.779 280.697 317.802 285.03C317.818 288.078 316.509 288.894 313.72 287.656C302.013 282.463 290.245 277.405 278.635 272.006C277.363 271.414 276.266 268.943 276.273 267.348C276.313 257.854 276.702 248.362 277.356 238.166C277.759 231.608 277.781 225.752 277.804 219.897Z" fill="white"/>
<path d="M277.676 220.293C277.781 225.752 277.759 231.608 277.469 237.717C277.317 232.21 277.432 226.449 277.676 220.293Z" fill="#959691"/>
</g>
<defs>
<clipPath id="clip0_1_2">
<rect width="512" height="512" fill="white"/>
</clipPath>
</defs>
</svg>
